<svg id="svg" version="1.1" xmlns="http://www.w3.org/2000/svg" xmlns:xlink="http://www.w3.org/1999/xlink" width="400" height="400" viewBox="0, 0, 400,400"><g id="svgg"><path id="path0" d="M147.141 19.066 C 146.148 19.333,146.011 20.391,146.005 27.838 C 146.000 34.376,145.960 34.722,145.087 35.738 L 144.175 36.800 127.764 36.800 C 114.233 36.800,111.217 36.900,110.576 37.367 C 109.868 37.884,109.783 38.603,109.600 45.603 L 109.400 53.272 108.278 54.236 L 107.155 55.200 90.800 55.200 L 74.445 55.200 73.823 56.089 C 73.316 56.813,73.199 58.318,73.193 64.189 C 73.184 73.805,73.792 73.200,64.133 73.200 C 58.305 73.200,56.813 73.315,56.089 73.823 L 55.200 74.445 55.200 90.800 L 55.200 107.155 54.236 108.278 L 53.272 109.400 45.603 109.600 C 38.603 109.783,37.884 109.868,37.367 110.576 C 36.899 111.217,36.800 114.237,36.800 127.788 L 36.800 144.222 35.900 145.011 C 35.091 145.720,34.226 145.820,27.332 146.000 C 23.115 146.110,19.515 146.350,19.332 146.533 C 18.600 147.268,18.934 252.991,19.671 253.729 C 20.251 254.308,21.346 254.400,27.702 254.400 C 37.875 254.400,36.800 252.265,36.800 272.472 C 36.800 288.276,36.821 288.719,37.629 289.746 L 38.458 290.800 45.882 290.800 L 53.307 290.800 54.253 291.900 L 55.199 293.000 55.200 309.356 C 55.200 328.998,54.104 326.770,63.778 326.787 L 70.956 326.800 72.078 327.875 L 73.200 328.950 73.213 336.175 C 73.230 346.105,70.952 344.958,91.146 345.200 C 111.626 345.445,109.329 344.299,109.600 354.411 C 109.747 359.914,109.944 362.054,110.349 362.540 C 110.843 363.134,112.548 363.200,127.280 363.200 L 143.662 363.200 144.831 364.369 L 146.000 365.538 146.000 372.754 C 146.000 379.661,146.037 380.004,146.875 380.784 C 147.747 381.597,147.970 381.600,200.206 381.600 L 252.661 381.600 253.530 380.674 C 254.357 379.794,254.400 379.390,254.400 372.549 L 254.400 365.350 255.522 364.275 L 256.644 363.200 272.917 363.200 C 293.013 363.200,290.800 364.296,290.800 354.340 L 290.800 346.858 291.854 346.029 C 292.881 345.221,293.323 345.200,309.192 345.200 C 329.002 345.200,326.800 346.282,326.800 336.547 L 326.800 329.357 328.119 328.078 L 329.438 326.800 336.657 326.800 C 346.257 326.800,345.200 328.988,345.200 309.122 C 345.200 293.324,345.221 292.881,346.029 291.854 L 346.858 290.800 354.340 290.800 C 364.297 290.800,363.200 293.021,363.200 272.870 L 363.200 256.550 364.322 255.475 L 365.444 254.400 372.652 254.400 C 379.670 254.400,379.884 254.376,380.730 253.474 L 381.600 252.548 381.600 200.150 C 381.600 147.970,381.597 147.747,380.784 146.875 C 380.004 146.037,379.661 146.000,372.754 146.000 L 365.538 146.000 364.369 144.831 L 363.200 143.662 363.200 127.280 C 363.200 112.548,363.134 110.843,362.540 110.349 C 362.054 109.944,359.914 109.747,354.411 109.600 C 344.299 109.329,345.445 111.626,345.200 91.146 C 344.958 70.952,346.105 73.230,336.175 73.213 L 328.950 73.200 327.875 72.078 L 326.800 70.956 326.787 63.778 C 326.770 54.104,328.998 55.200,309.356 55.200 L 293.000 55.199 291.900 54.253 L 290.800 53.307 290.800 45.882 L 290.800 38.458 289.746 37.629 C 288.719 36.821,288.276 36.800,272.416 36.800 L 256.139 36.800 255.270 35.874 C 254.442 34.993,254.400 34.593,254.400 27.646 C 254.400 21.343,254.308 20.251,253.729 19.671 C 253.090 19.033,149.454 18.444,147.141 19.066 M163.213 110.014 L 164.400 111.228 164.400 127.445 L 164.400 143.662 163.206 144.855 L 162.013 146.049 154.477 145.924 C 144.288 145.756,145.428 147.973,145.276 128.029 C 145.115 106.895,144.099 108.917,154.913 108.846 L 162.027 108.800 163.213 110.014 M108.455 127.994 L 109.649 129.187 109.524 136.723 C 109.412 143.536,109.326 144.333,108.629 145.030 C 107.362 146.295,57.063 146.437,55.465 145.179 L 54.400 144.342 54.400 136.693 L 54.400 129.044 55.475 127.922 L 56.550 126.800 81.906 126.800 L 107.262 126.800 108.455 127.994 M253.997 128.059 L 255.200 129.319 255.200 136.490 L 255.200 143.662 254.024 144.837 L 252.849 146.013 218.096 145.906 C 184.396 145.803,183.319 145.777,182.571 145.030 C 181.874 144.333,181.788 143.536,181.676 136.723 L 181.551 129.187 182.745 127.994 L 183.938 126.800 218.366 126.800 L 252.793 126.800 253.997 128.059 M144.831 164.369 L 146.000 165.538 146.000 172.608 C 146.000 182.836,146.446 182.386,136.300 182.395 C 126.892 182.402,128.000 178.799,128.000 209.377 L 128.000 234.755 128.889 235.377 C 129.658 235.916,131.949 236.000,145.830 236.000 L 161.881 236.000 163.141 237.203 L 164.400 238.407 164.400 245.600 L 164.400 252.793 163.141 253.997 L 161.881 255.200 136.510 255.200 L 111.138 255.200 109.969 254.031 L 108.800 252.862 108.800 227.651 L 108.800 202.441 107.854 201.421 L 106.908 200.400 90.601 200.400 L 74.293 200.400 73.347 199.300 C 72.429 198.233,72.401 197.988,72.400 191.100 C 72.400 181.728,73.078 182.400,63.621 182.400 C 56.627 182.400,56.415 182.376,55.421 181.454 L 54.400 180.508 54.400 172.976 L 54.400 165.444 55.475 164.322 L 56.550 163.200 100.106 163.200 L 143.662 163.200 144.831 164.369 M253.997 164.459 L 255.200 165.719 255.200 181.959 L 255.199 198.200 254.253 199.300 L 253.307 200.400 227.508 200.400 L 201.709 200.400 200.655 199.345 L 199.600 198.291 199.600 191.145 C 199.600 181.764,200.205 182.402,191.300 182.395 C 181.154 182.386,181.600 182.836,181.600 172.608 L 181.600 165.538 182.769 164.369 L 183.938 163.200 218.366 163.200 L 252.793 163.200 253.997 164.459 M254.207 219.100 C 255.156 220.179,255.175 220.345,255.187 227.686 C 255.203 236.788,254.377 235.996,263.874 236.013 C 270.834 236.025,271.026 236.048,272.100 236.993 L 273.200 237.962 273.193 254.681 L 273.186 271.400 272.237 272.300 C 270.789 273.672,256.781 273.697,255.326 272.330 L 254.400 271.461 254.400 254.930 C 254.400 234.565,255.512 236.800,245.381 236.800 L 237.962 236.800 236.993 235.700 C 235.538 234.047,235.464 221.006,236.900 219.185 L 237.800 218.044 245.519 218.022 L 253.238 218.000 254.207 219.100 M235.874 255.270 C 236.779 256.119,236.800 256.314,236.800 263.713 C 236.800 273.886,237.487 273.184,227.523 273.193 C 218.063 273.202,218.800 272.453,218.800 282.047 L 218.800 289.115 217.640 290.358 L 216.479 291.600 163.809 291.600 L 111.138 291.600 109.969 290.431 L 108.800 289.262 108.800 282.000 L 108.800 274.738 109.969 273.569 L 111.138 272.400 163.680 272.400 C 210.587 272.400,216.317 272.333,217.111 271.777 C 217.976 271.172,218.000 270.950,218.000 263.703 C 218.000 253.689,217.286 254.400,227.344 254.400 C 234.601 254.400,234.991 254.440,235.874 255.270 M181.231 309.969 L 182.400 311.138 182.400 318.383 L 182.400 325.627 181.186 326.813 L 179.972 328.000 163.755 328.000 L 147.538 328.000 146.369 326.831 L 145.200 325.662 145.200 318.592 C 145.200 311.200,145.553 309.499,147.178 309.061 C 147.520 308.968,155.059 308.872,163.931 308.846 L 180.062 308.800 181.231 309.969 " stroke="none" fill="#043a96" fill-rule="evenodd"></path><path id="path1" d="M143.200 8.000 L 143.200 16.000 125.000 16.000 L 106.800 16.000 106.800 24.996 L 106.800 33.992 88.700 34.096 L 70.600 34.200 70.492 43.300 L 70.385 52.400 61.392 52.400 L 52.400 52.400 52.400 61.392 L 52.400 70.385 43.300 70.492 L 34.200 70.600 34.096 88.700 L 33.992 106.800 24.996 106.800 L 16.000 106.800 16.000 125.000 L 16.000 143.200 8.000 143.200 L 0.000 143.200 0.000 200.000 L 0.000 256.800 8.000 256.800 L 16.000 256.800 16.000 275.000 L 16.000 293.200 24.996 293.200 L 33.992 293.200 34.096 311.300 L 34.200 329.400 43.300 329.508 L 52.400 329.615 52.400 338.608 L 52.400 347.600 61.392 347.600 L 70.385 347.600 70.492 356.700 L 70.600 365.800 88.700 365.904 L 106.800 366.008 106.800 375.004 L 106.800 384.000 125.000 384.000 L 143.200 384.000 143.200 392.000 L 143.200 400.000 200.000 400.000 L 256.800 400.000 256.800 392.000 L 256.800 384.000 275.000 384.000 L 293.200 384.000 293.200 375.004 L 293.200 366.008 311.300 365.904 L 329.400 365.800 329.508 356.700 L 329.615 347.600 338.608 347.600 L 347.600 347.600 347.600 338.608 L 347.600 329.615 356.700 329.508 L 365.800 329.400 365.904 311.300 L 366.008 293.200 375.004 293.200 L 384.000 293.200 384.000 275.000 L 384.000 256.800 392.000 256.800 L 400.000 256.800 400.000 200.000 L 400.000 143.200 392.000 143.200 L 384.000 143.200 384.000 125.000 L 384.000 106.800 375.004 106.800 L 366.008 106.800 365.904 88.700 L 365.800 70.600 356.700 70.492 L 347.600 70.385 347.600 61.392 L 347.600 52.400 338.608 52.400 L 329.615 52.400 329.508 43.300 L 329.400 34.200 311.300 34.096 L 293.200 33.992 293.200 24.996 L 293.200 16.000 275.000 16.000 L 256.800 16.000 256.800 8.000 L 256.800 0.000 200.000 0.000 L 143.200 0.000 143.200 8.000 M253.700 18.957 C 254.322 19.429,254.400 20.310,254.400 26.897 L 254.400 34.305 255.676 35.553 L 256.952 36.800 273.396 36.800 C 285.652 36.800,289.962 36.922,290.320 37.280 C 290.659 37.619,290.800 39.927,290.800 45.111 L 290.800 52.462 291.969 53.631 L 293.138 54.800 309.469 54.806 C 319.041 54.810,326.048 54.969,326.400 55.191 C 326.891 55.501,327.022 56.942,327.124 63.150 L 327.248 70.731 328.427 71.966 L 329.607 73.200 337.059 73.200 C 343.688 73.200,344.571 73.277,345.043 73.900 C 345.464 74.455,345.577 77.993,345.587 90.974 C 345.603 111.376,344.497 109.200,354.847 109.200 C 364.673 109.200,363.600 106.994,363.600 127.189 L 363.601 143.400 364.547 144.500 L 365.493 145.600 372.871 145.600 C 379.743 145.600,380.309 145.656,381.125 146.416 L 382.000 147.231 382.000 200.084 C 382.000 248.703,381.947 252.996,381.338 253.669 C 380.742 254.327,379.938 254.400,373.298 254.400 L 365.921 254.400 364.760 255.642 L 363.600 256.885 363.600 273.069 C 363.600 283.460,363.452 289.530,363.186 290.026 C 362.799 290.749,362.277 290.800,355.240 290.800 L 347.709 290.800 346.655 291.855 L 345.600 292.909 345.600 309.432 L 345.600 325.955 344.711 326.577 C 343.987 327.084,342.497 327.200,336.680 327.200 L 329.538 327.200 328.369 328.369 L 327.200 329.538 327.200 336.680 C 327.200 342.497,327.084 343.987,326.577 344.711 L 325.955 345.600 309.432 345.600 L 292.909 345.600 291.855 346.655 L 290.800 347.709 290.800 355.240 C 290.800 362.277,290.749 362.799,290.026 363.186 C 289.530 363.452,283.460 363.600,273.069 363.600 L 256.885 363.600 255.642 364.760 L 254.400 365.921 254.400 373.229 C 254.400 379.468,254.303 380.644,253.738 381.269 C 253.103 381.970,250.916 382.000,200.154 382.000 L 147.231 382.000 146.416 381.125 C 145.656 380.309,145.600 379.743,145.600 372.871 L 145.600 365.493 144.500 364.547 L 143.400 363.601 127.189 363.600 C 107.000 363.600,109.200 364.663,109.200 354.903 C 109.200 347.803,109.159 347.408,108.330 346.526 L 107.461 345.600 91.030 345.587 C 78.002 345.577,74.455 345.465,73.900 345.043 C 73.277 344.571,73.200 343.688,73.200 337.059 L 73.200 329.607 71.966 328.427 L 70.731 327.248 63.150 327.124 C 56.942 327.022,55.501 326.891,55.191 326.400 C 54.969 326.048,54.810 319.041,54.806 309.469 L 54.800 293.138 53.631 291.969 L 52.462 290.800 45.111 290.800 C 39.927 290.800,37.619 290.659,37.280 290.320 C 36.922 289.962,36.800 285.652,36.800 273.396 L 36.800 256.952 35.553 255.676 L 34.305 254.400 26.897 254.400 C 20.310 254.400,19.429 254.322,18.957 253.700 C 17.935 252.354,18.173 147.427,19.200 146.400 C 19.941 145.659,20.533 145.600,27.278 145.600 L 34.556 145.600 35.678 144.525 L 36.800 143.450 36.800 127.057 C 36.800 106.955,35.690 109.200,45.633 109.200 L 53.142 109.200 53.971 108.146 C 54.779 107.119,54.800 106.675,54.800 90.920 C 54.800 80.537,54.948 74.470,55.214 73.974 C 55.601 73.251,56.122 73.200,63.095 73.200 L 70.562 73.200 71.881 71.922 L 73.200 70.643 73.200 63.136 C 73.200 56.123,73.251 55.601,73.974 55.214 C 74.470 54.948,80.537 54.800,90.920 54.800 C 106.675 54.800,107.119 54.779,108.146 53.971 L 109.200 53.142 109.200 45.702 C 109.200 35.672,106.945 36.800,126.987 36.800 L 143.450 36.800 144.525 35.678 L 145.600 34.556 145.600 27.278 C 145.600 20.533,145.659 19.941,146.400 19.200 C 147.427 18.173,252.354 17.935,253.700 18.957 M146.470 110.126 C 145.606 111.045,145.600 111.164,145.600 127.456 L 145.600 143.861 146.526 144.730 C 147.407 145.558,147.806 145.600,154.779 145.600 L 162.107 145.600 163.053 144.500 L 163.999 143.400 163.987 127.400 L 163.975 111.400 163.007 110.300 L 162.038 109.200 154.689 109.200 C 147.524 109.200,147.318 109.223,146.470 110.126 M55.642 128.360 L 54.400 129.521 54.400 136.506 L 54.400 143.491 55.455 144.545 L 56.509 145.600 81.985 145.600 L 107.461 145.600 108.330 144.674 C 109.158 143.793,109.200 143.394,109.200 136.421 L 109.200 129.093 108.100 128.147 L 107.000 127.201 81.942 127.200 L 56.885 127.200 55.642 128.360 M183.100 128.147 L 182.000 129.093 182.000 136.477 C 182.000 143.678,182.023 143.882,182.926 144.730 L 183.852 145.600 218.497 145.600 L 253.142 145.600 253.971 144.546 C 254.738 143.571,254.800 142.968,254.800 136.515 L 254.800 129.538 253.631 128.369 L 252.462 127.200 218.331 127.200 L 184.200 127.201 183.100 128.147 M55.642 164.760 L 54.400 165.921 54.400 172.839 L 54.400 179.756 55.475 180.878 L 56.550 182.000 63.728 182.000 L 70.907 182.000 71.853 183.100 C 72.768 184.164,72.799 184.424,72.800 191.069 C 72.800 197.876,72.810 197.950,73.836 199.169 L 74.871 200.400 91.220 200.400 C 107.523 200.400,107.571 200.402,108.384 201.275 C 109.187 202.137,109.200 202.542,109.200 227.563 L 109.200 252.975 110.262 253.887 L 111.324 254.800 136.493 254.800 L 161.662 254.800 162.831 253.631 L 164.000 252.462 164.000 245.600 L 164.000 238.738 162.831 237.569 L 161.662 236.400 145.506 236.400 C 129.750 236.400,129.329 236.380,128.467 235.576 L 127.583 234.753 127.691 208.994 C 127.821 178.259,126.571 182.030,136.630 182.013 C 146.242 181.996,145.600 182.654,145.600 172.821 L 145.600 165.493 144.500 164.547 L 143.400 163.601 100.142 163.600 L 56.885 163.600 55.642 164.760 M183.100 164.547 L 182.000 165.493 182.000 172.877 C 182.000 182.662,181.337 182.000,191.126 182.000 C 195.709 182.000,198.400 182.148,198.400 182.400 C 198.400 182.620,198.649 182.800,198.953 182.800 C 199.825 182.800,199.989 184.137,199.995 191.331 L 200.000 198.062 201.169 199.231 L 202.338 200.400 227.400 200.400 L 252.462 200.400 253.631 199.231 L 254.800 198.062 254.800 182.000 L 254.800 165.938 253.631 164.769 L 252.462 163.600 218.331 163.600 L 184.200 163.601 183.100 164.547 M237.569 219.169 L 236.400 220.338 236.400 227.400 L 236.400 234.462 237.569 235.631 L 238.738 236.800 246.569 236.800 L 254.400 236.800 254.400 253.753 L 254.400 270.705 255.676 271.953 L 256.952 273.200 263.797 273.200 L 270.643 273.200 271.922 271.881 L 273.200 270.562 273.200 254.703 L 273.200 238.845 272.236 237.722 L 271.271 236.600 263.136 236.400 L 255.000 236.200 254.800 228.064 L 254.600 219.929 253.478 218.964 C 252.387 218.027,252.165 218.000,245.547 218.000 L 238.738 218.000 237.569 219.169 M219.247 255.676 L 218.000 256.952 218.000 264.876 L 218.000 272.800 164.662 272.800 L 111.324 272.800 110.262 273.713 L 109.200 274.625 109.200 281.932 L 109.200 289.238 110.258 290.219 L 111.317 291.200 163.358 291.195 C 191.981 291.192,215.774 291.089,216.231 290.966 C 218.096 290.465,218.400 289.047,218.400 280.838 L 218.400 273.200 226.322 273.200 L 234.243 273.200 235.522 271.881 L 236.800 270.562 236.800 263.757 L 236.800 256.952 235.553 255.676 L 234.305 254.400 227.400 254.400 L 220.495 254.400 219.247 255.676 M146.470 310.126 C 145.642 311.007,145.600 311.406,145.600 318.379 L 145.600 325.707 146.700 326.653 L 147.800 327.599 163.800 327.587 L 179.800 327.575 180.900 326.607 L 182.000 325.638 181.993 318.319 C 181.986 311.140,181.968 310.983,181.037 310.100 L 180.087 309.200 163.713 309.200 L 147.339 309.200 146.470 310.126 " stroke="none" fill="#040404" fill-rule="evenodd"></path><path id="path2" d="" stroke="none" fill="#1003804" fill-rule="evenodd"></path><path id="path3" d="" stroke="none" fill="#1003804" fill-rule="evenodd"></path><path id="path4" d="" stroke="none" fill="#1003804" fill-rule="evenodd"></path></g></svg>
